<svg width="20" height="20" viewBox="0 0 20 20" fill="none" xmlns="http://www.w3.org/2000/svg">
<path d="M8.83517 11.1648L17.0246 2.97542M8.93467 11.4208L10.9844 16.6916C11.165 17.1559 11.2553 17.3881 11.3854 17.4558C11.4982 17.5147 11.6325 17.5148 11.7454 17.4561C11.8756 17.3884 11.9661 17.1564 12.1473 16.6923L17.2873 3.52075C17.4508 3.10178 17.5326 2.89229 17.4879 2.75843C17.4491 2.64218 17.3578 2.55095 17.2416 2.51212C17.1077 2.4674 16.8983 2.54915 16.4793 2.71265L3.30773 7.85276C2.84361 8.03388 2.61154 8.12444 2.54392 8.25462C2.48528 8.3675 2.48537 8.50183 2.54413 8.61458C2.61191 8.74467 2.84408 8.835 3.30842 9.01558L8.57925 11.0653C8.67358 11.102 8.72067 11.1203 8.76033 11.1486C8.7955 11.1738 8.82625 11.2045 8.85142 11.2397C8.87967 11.2793 8.898 11.3264 8.93467 11.4208Z" stroke="white" stroke-width="1.25" stroke-linecap="round" stroke-linejoin="round"/>
</svg>
