<svg xmlns="http://www.w3.org/2000/svg" width="132" height="24" viewBox="0 0 132 24" fill="none">
  <path fill-rule="evenodd" clip-rule="evenodd" d="M78.0612 14.3504L82.5552 12.5005C82.3077 11.8788 81.5652 11.4443 80.6903 11.4443C79.5657 11.4443 78.0047 12.4252 78.0612 14.3504ZM83.3346 16.1423L85.0476 17.2738C84.4961 18.0848 83.1631 19.4808 80.8596 19.4808C78.0047 19.4808 75.9422 17.291 75.9422 14.501C75.9422 11.5368 78.0243 9.51902 80.6121 9.51902C83.2217 9.51902 84.4961 11.5755 84.9151 12.6898L85.1431 13.2555L78.4216 16.0089C78.9361 17.0092 79.735 17.519 80.8596 17.519C81.9821 17.519 82.7636 16.9705 83.3346 16.1423ZM72.4425 19.1797H74.6505V4.53918H72.4425V19.1797ZM68.8386 14.5182C68.8386 12.7651 67.6575 11.4808 66.153 11.4808C64.6311 11.4808 63.3545 12.7651 63.3545 14.5182C63.3545 16.2542 64.6311 17.519 66.153 17.519C67.6575 17.519 68.8386 16.2542 68.8386 14.5182ZM70.7795 9.82233V18.7645C70.7795 22.4429 68.5911 23.953 66.001 23.953C63.563 23.953 62.0975 22.3311 61.5461 21.0103L63.4696 20.2165C63.8126 21.0275 64.6507 21.989 66.0032 21.989C67.6597 21.989 68.6888 20.9716 68.6888 19.0657V18.3493H68.6128C68.1178 18.9538 67.1647 19.4808 65.9663 19.4808C63.4522 19.4808 61.1488 17.3104 61.1488 14.5182C61.1488 11.7067 63.4522 9.51902 65.9663 9.51902C67.1669 9.51902 68.1178 10.046 68.6128 10.6311H68.6888V9.82017C68.6866 9.82233 70.7795 9.82233 70.7795 9.82233ZM46.6788 14.501C46.6788 12.707 45.3892 11.483 43.8933 11.483C42.3975 11.483 41.1079 12.7091 41.1079 14.501C41.1079 16.2735 42.3975 17.519 43.8933 17.519C45.387 17.519 46.6788 16.2735 46.6788 14.501ZM48.8455 14.501C48.8455 17.3684 46.6202 19.4808 43.8912 19.4808C41.1622 19.4808 38.9369 17.3684 38.9369 14.501C38.9369 11.6142 41.1622 9.52117 43.8912 9.52117C46.6223 9.52117 48.8455 11.6142 48.8455 14.501ZM57.7837 14.501C57.7837 12.707 56.4941 11.483 54.9982 11.483C53.5024 11.483 52.2128 12.7091 52.2128 14.501C52.2128 16.2735 53.5024 17.519 54.9982 17.519C56.4941 17.519 57.7837 16.2735 57.7837 14.501ZM59.9525 14.501C59.9525 17.3684 57.7272 19.4808 54.9982 19.4808C52.2692 19.4808 50.0439 17.3684 50.0439 14.501C50.0439 11.6142 52.2692 9.52117 54.9982 9.52117C57.7272 9.52117 59.9525 11.6142 59.9525 14.501ZM30.4503 19.4808C26.1473 19.4808 22.5303 16.0089 22.5303 11.7454C22.5303 7.48191 26.1494 4.01001 30.4524 4.01001C32.8341 4.01001 34.5275 4.93499 35.804 6.14392L34.2995 7.63464C33.3855 6.78495 32.148 6.12456 30.4524 6.12456C27.3109 6.12456 24.8533 8.63491 24.8533 11.7476C24.8533 14.8602 27.3109 17.3684 30.4524 17.3684C32.4889 17.3684 33.6504 16.5575 34.395 15.8218C35.0051 15.2195 35.4046 14.3504 35.5565 13.163H30.4524V11.0506H37.6299C37.708 11.4271 37.745 11.8809 37.745 12.3714C37.745 13.9568 37.3064 15.9186 35.8996 17.3147C34.5253 18.7279 32.7733 19.4808 30.4503 19.4808Z" fill="#9BA5B5"/>
  <path d="M90.3593 19.0417V6.04517H92.0447L96.6063 13.9593H96.6796L101.241 6.04517H102.927V19.0417H101.241V11.3273L101.314 9.14909H101.241L97.1376 16.2827H96.1483L92.0447 9.14909H91.9714L92.0447 11.3273V19.0417H90.3593Z" fill="#9BA5B5"/>
  <path d="M108.111 19.3321C107.159 19.3321 106.362 19.0598 105.72 18.5152C105.079 17.9707 104.759 17.2537 104.759 16.3552C104.759 15.3841 105.134 14.6308 105.894 14.0772C106.655 13.5236 107.589 13.2513 108.697 13.2513C109.687 13.2513 110.502 13.4328 111.134 13.7958V13.5417C111.134 12.8882 110.905 12.3619 110.456 11.9716C110.007 11.5813 109.448 11.3817 108.789 11.3817C108.303 11.3817 107.855 11.4997 107.461 11.7265C107.067 11.9534 106.792 12.2711 106.646 12.6704L105.107 12.017C105.317 11.4815 105.72 10.9914 106.334 10.5376C106.948 10.0838 107.754 9.85693 108.752 9.85693C109.897 9.85693 110.85 10.1927 111.61 10.8553C112.37 11.5178 112.746 12.4617 112.746 13.6688V19.0416H111.134V17.8073H111.061C110.392 18.8238 109.403 19.3321 108.111 19.3321ZM108.386 17.8073C109.082 17.8073 109.714 17.5532 110.282 17.0359C110.85 16.5186 111.134 15.9105 111.134 15.2117C110.658 14.8214 109.943 14.6308 108.99 14.6308C108.175 14.6308 107.552 14.8032 107.14 15.1572C106.728 15.5111 106.517 15.9196 106.517 16.3915C106.517 16.8271 106.71 17.172 107.085 17.4261C107.461 17.6803 107.9 17.8073 108.386 17.8073Z" fill="#9BA5B5"/>
  <path d="M119.314 19.3321C118.627 19.3321 118.013 19.1868 117.472 18.8964C116.932 18.606 116.52 18.243 116.254 17.8073H116.181L116.254 19.0416V22.9624H114.569V10.1474H116.181V11.3817H116.254C116.52 10.946 116.932 10.583 117.472 10.2926C118.013 10.0021 118.627 9.85693 119.314 9.85693C120.477 9.85693 121.475 10.3107 122.318 11.2183C123.161 12.1259 123.582 13.2513 123.582 14.5945C123.582 15.9377 123.161 17.0631 122.318 17.9707C121.475 18.8783 120.477 19.3321 119.314 19.3321ZM119.039 17.8073C119.817 17.8073 120.495 17.5169 121.054 16.927C121.613 16.337 121.897 15.5656 121.897 14.5945C121.897 13.6234 121.613 12.8519 121.054 12.262C120.495 11.6721 119.817 11.3817 119.039 11.3817C118.242 11.3817 117.573 11.6721 117.014 12.2529C116.456 12.8338 116.181 13.6143 116.181 14.5945C116.181 15.5747 116.456 16.3552 117.014 16.9361C117.573 17.5169 118.251 17.8073 119.039 17.8073Z" fill="#9BA5B5"/>
  <path d="M128.464 19.3321C127.466 19.3321 126.632 19.087 125.982 18.606C125.332 18.125 124.846 17.5169 124.544 16.7908L126.046 16.1737C126.522 17.29 127.338 17.8436 128.483 17.8436C129.005 17.8436 129.435 17.7256 129.774 17.4988C130.113 17.2719 130.278 16.9633 130.278 16.5912C130.278 16.0103 129.866 15.6201 129.051 15.4113L127.237 14.9757C126.66 14.8305 126.119 14.5582 125.606 14.1498C125.093 13.7414 124.837 13.1968 124.837 12.5071C124.837 11.7175 125.185 11.0822 125.89 10.5921C126.596 10.102 127.429 9.85693 128.391 9.85693C129.188 9.85693 129.893 10.0384 130.516 10.3924C131.139 10.7464 131.588 11.2637 131.853 11.9262L130.388 12.5252C130.058 11.7356 129.371 11.3454 128.336 11.3454C127.832 11.3454 127.411 11.4452 127.072 11.6539C126.733 11.8627 126.559 12.135 126.559 12.4889C126.559 12.9972 126.953 13.342 127.75 13.5236L129.527 13.941C130.37 14.1316 130.992 14.4674 131.395 14.9394C131.798 15.4113 132 15.9468 132 16.5367C132 17.3354 131.67 17.9979 131.011 18.5334C130.351 19.0598 129.499 19.3321 128.464 19.3321Z" fill="#9BA5B5"/>
  <path d="M4.65254 17.7836C5.40155 18.7107 6.16141 19.8723 6.56088 20.5757C7.0472 21.49 7.24693 22.1073 7.6095 23.2087C7.82226 23.8153 8.02199 24.0003 8.44535 24.0003C8.90778 24.0003 9.11837 23.6905 9.2812 23.2087C9.61771 22.1697 9.88041 21.3802 10.2907 20.6252C11.1005 19.1797 12.1253 17.8933 13.1218 16.6585C13.3953 16.3122 15.143 14.273 15.9289 12.6553C15.9289 12.6553 16.8885 10.8871 16.8885 8.41547C16.8885 6.10517 15.9398 4.49829 15.9398 4.49829L13.1956 5.22752L11.5239 9.57708L11.1114 10.1708L11.0245 10.2826L10.9116 10.4182L10.7249 10.6397L10.4514 10.9108L8.9664 12.1089L5.2626 14.2342L4.65254 17.7836Z" fill="#9BA5B5"/>
  <path d="M0.822813 12.3584C1.73248 14.4106 3.46714 16.2024 4.65253 17.7835L10.9268 10.4181C10.9268 10.4181 10.041 11.5668 8.44533 11.5668C6.66074 11.5668 5.21483 10.1578 5.21483 8.37884C5.21483 7.15485 5.95081 6.31592 5.95081 6.31592L1.69557 7.44095L0.822813 12.3584Z" fill="#9BA5B5"/>
  <path d="M11.0006 0.383057C13.0827 1.0499 14.8673 2.44598 15.9398 4.51105L10.9247 10.4309C10.9247 10.4309 11.6606 9.57908 11.6606 8.368C11.6606 6.55031 10.1149 5.18004 8.44316 5.18004C6.8583 5.18004 5.94863 6.31799 5.94863 6.31799V2.58365L11.0006 0.383057Z" fill="#9BA5B5"/>
  <path d="M1.96914 2.99005C3.21531 1.51869 5.39938 0 8.41713 0C9.87606 0 10.9855 0.382899 10.9855 0.382899L5.94865 6.31568H2.38163L1.96914 2.99005Z" fill="#9BA5B5"/>
  <path d="M0.822825 12.3581C0.822825 12.3581 0 10.7383 0 8.40438C0 6.19303 0.872758 4.26348 1.98216 3.00293L5.96168 6.3264L0.822825 12.3581Z" fill="#9BA5B5"/>
</svg>