<svg xmlns="http://www.w3.org/2000/svg" width="20" height="20" viewBox="0 0 20 20" fill="none">
<path fill-rule="evenodd" clip-rule="evenodd" d="M18.3334 10.0001C18.3334 14.6025 14.6024 18.3334 10 18.3334C5.39765 18.3334 1.66669 14.6025 1.66669 10.0001C1.66669 5.39771 5.39765 1.66675 10 1.66675C14.6024 1.66675 18.3334 5.39771 18.3334 10.0001ZM7.50017 6.75013C7.08596 6.75013 6.75017 7.08592 6.75017 7.50013C6.75017 7.91435 7.08596 8.25013 7.50017 8.25013H10.6895L6.96985 11.9697C6.67695 12.2626 6.67695 12.7375 6.96984 13.0304C7.26273 13.3233 7.7376 13.3233 8.0305 13.0304L11.7502 9.31077V12.5001C11.7502 12.9143 12.086 13.2501 12.5002 13.2501C12.9144 13.2501 13.2502 12.9143 13.2502 12.5001V7.50013C13.2502 7.08592 12.9144 6.75013 12.5002 6.75013H7.50017Z" fill="white"/>
</svg>